<svg xmlns="http://www.w3.org/2000/svg" viewBox="0 0 60 46"><defs><style>.cls-1{fill:#eb673e;}.cls-2{fill:#fff;}.cls-3{fill:none;}</style></defs><title>basketball-pattern</title><g id="sportsman-moving-parts"><rect class="cls-1" width="60" height="46"/><rect class="cls-2" x="29.07" y="0.16" width="1.86" height="45.67"/><rect class="cls-2" y="22.07" width="60" height="1.86"/><path class="cls-3" d="M38.7,23A21.12,21.12,0,0,0,59.79,44.1h0V1.9h0A21.12,21.12,0,0,0,38.7,23Z"/><path class="cls-2" d="M60,44.1h0A21.1,21.1,0,0,1,60,1.9h0V0h0a23,23,0,0,0,0,46h0Z"/><path class="cls-3" d="M21.1,23A21.13,21.13,0,0,0,0,1.9V44.1A21.13,21.13,0,0,0,21.1,23Z"/><path class="cls-2" d="M0,0H0V1.9A21.11,21.11,0,0,1,21.1,23,21.11,21.11,0,0,1,0,44.1V46H0A23,23,0,0,0,23,23,23,23,0,0,0,0,0Z"/></g></svg>