<svg xmlns="http://www.w3.org/2000/svg" xmlns:xlink="http://www.w3.org/1999/xlink" viewBox="0 0 46 46"><defs><style>.cls-1{fill:none;}.cls-2{fill:#eb673e;}.cls-3{clip-path:url(#clip-path);}.cls-4{fill:#fff;}</style><clipPath id="clip-path"><path class="cls-1" d="M46,23A23,23,0,1,1,23,0,23,23,0,0,1,46,23Z"/></clipPath></defs><title>basketball</title><g id="sportsman-comp"><path class="cls-2" d="M46,23A23,23,0,1,1,23,0,23,23,0,0,1,46,23Z"/><g class="cls-3"><path class="cls-4" d="M-8.25,47a24,24,0,0,1-24-24,24,24,0,0,1,24-24,24,24,0,0,1,24,24A24,24,0,0,1-8.25,47Zm0-46a22,22,0,0,0-22,22,22,22,0,0,0,22,22,22,22,0,0,0,22-22A22,22,0,0,0-8.25,1Z"/><path class="cls-4" d="M54.44,47a24,24,0,1,1,24-24A24,24,0,0,1,54.44,47Zm0-46a22,22,0,1,0,22,22A22,22,0,0,0,54.44,1Z"/><rect class="cls-4" x="22.01" y="-1.34" width="1.99" height="48.68"/><rect class="cls-4" x="-3.07" y="22.01" width="52.14" height="1.99"/></g></g></svg>