<svg id="sportsman-stillparts" xmlns="http://www.w3.org/2000/svg" viewBox="0 0 192 192"><defs><style>.cls-1{fill:#f6cdbe;}.cls-2{fill:#112b0f;}.cls-3{fill:#316734;}</style></defs><title>stillparts</title><path class="cls-1" d="M98,65.37v-.64a15,15,0,0,0-30,0V72H98Z"/><path class="cls-2" d="M86,62a2,2,0,1,0,2-2A2,2,0,0,0,86,62Z"/><path class="cls-2" d="M76,62a2,2,0,1,0,2-2A2,2,0,0,0,76,62Z"/><path class="cls-2" d="M85,68H81a1,1,0,1,1,0-2h4a1,1,0,1,1,0,2Z"/><path class="cls-3" d="M151,86a11.06,11.06,0,0,0-11,11.13V106H98V72H68V90.55h0v31.59h0v5.79l0,.07v47.29a11,11,0,0,0,2.23,6.32,11.18,11.18,0,0,0,2.15,2.14A10.83,10.83,0,0,0,79,186h23.9a11,11,0,1,0,0-22H90V128h61.29a11,11,0,0,0,6.32-2.23,11.18,11.18,0,0,0,2.14-2.15A10.86,10.86,0,0,0,162,117V97.13A11.07,11.07,0,0,0,151,86Z"/></svg>