<svg xmlns="http://www.w3.org/2000/svg" viewBox="0 0 26 26"><defs><style>.cls-1{fill:#fff;}.cls-2{fill:#dcdb29;}</style></defs><title>shuttlecock</title><g id="sportsman-comp"><path class="cls-1" d="M25.84,5.12,25.67,5a5.21,5.21,0,0,0-7.13.14l-.19.22a5,5,0,0,0-1.48-3.86A5.25,5.25,0,0,0,13.36,0h-.2A5.19,5.19,0,0,0,9.55,1.48,5,5,0,0,0,8.13,5.94a4.78,4.78,0,0,0-.68-.82A5.24,5.24,0,0,0,.31,5l-.22.19L0,5.28l7.28,7.13L13,18l5.72-5.59L26,5.28h0l-.11-.1Z"/><path class="cls-2" d="M17.2,22a4,4,0,1,1-4-4A4,4,0,0,1,17.2,22Z"/></g></svg>