<svg xmlns="http://www.w3.org/2000/svg" xmlns:xlink="http://www.w3.org/1999/xlink" viewBox="0 0 46 46"><defs><style>.cls-1{fill:none;}.cls-2{fill:#fff;}.cls-3{clip-path:url(#clip-path);}.cls-4{clip-path:url(#clip-path-2);}.cls-5{fill:#316734;}</style><clipPath id="clip-path"><path class="cls-1" d="M-6.38,22.93a23,23,0,0,1-23,23,23,23,0,0,1-23-23,23,23,0,0,1,23-23A23,23,0,0,1-6.38,22.93Z"/></clipPath><clipPath id="clip-path-2"><path class="cls-1" d="M46,23A23,23,0,1,1,23,0,23,23,0,0,1,46,23Z"/></clipPath></defs><title>soccer</title><g id="sportsman-moving-parts"><path class="cls-2" d="M46,23A23,23,0,1,1,23,0,23,23,0,0,1,46,23Z"/><g class="cls-3"><path class="cls-2" d="M2.06,46.92a24,24,0,1,1,0-48,24,24,0,0,1,0,48Zm0-46a22,22,0,1,0,0,44,22,22,0,1,0,0-44Z"/></g><g class="cls-4"><polygon class="cls-5" points="30.46 35.46 40.35 35.29 43.57 44.64 35.68 50.59 27.57 44.92 30.46 35.46"/><polygon class="cls-5" points="5.32 35.46 15.21 35.29 18.43 44.64 10.53 50.59 2.43 44.92 5.32 35.46"/><polygon class="cls-5" points="18.06 30.61 15 21.2 23 15.39 31 21.2 27.94 30.61 18.06 30.61"/><polygon class="cls-5" points="27.94 -4.62 31 4.79 23 10.6 15 4.79 18.06 -4.62 27.94 -4.62"/><polygon class="cls-5" points="38.81 11.41 48.7 11.24 51.92 20.59 44.02 26.55 35.92 20.87 38.81 11.41"/><polygon class="cls-5" points="-3.03 11.41 6.86 11.24 10.08 20.59 2.18 26.55 -5.92 20.87 -3.03 11.41"/></g></g></svg>