<svg xmlns="http://www.w3.org/2000/svg" viewBox="0 0 38 46"><defs><style>.cls-1{fill:#fff;}.cls-2{fill:#316734;}</style></defs><title>soccer-pattern</title><g id="sportsman-moving-parts"><rect class="cls-1" width="38" height="46"/><polygon class="cls-2" points="6.5 37.31 6.5 29.81 0 26.06 -6.5 29.81 -6.5 37.31 0 41.07 6.5 37.31"/><path class="cls-2" d="M6.5,15.36V9.52a1.47,1.47,0,0,0-.72-1.25L.72,5.35a1.43,1.43,0,0,0-1.44,0L-5.78,8.27A1.47,1.47,0,0,0-6.5,9.52v5.84a1.47,1.47,0,0,0,.72,1.25l5.06,2.92a1.43,1.43,0,0,0,1.44,0l5.06-2.92A1.47,1.47,0,0,0,6.5,15.36Z"/><polygon class="cls-2" points="25.5 5.63 25.5 -1.87 19 -5.63 12.5 -1.87 12.5 5.63 19 9.38 25.5 5.63"/><polygon class="cls-2" points="25.5 26.75 25.5 19.25 19 15.49 12.5 19.25 12.5 26.75 19 30.51 25.5 26.75"/><polygon class="cls-2" points="25.5 47.88 25.5 40.37 19 36.62 12.5 40.37 12.5 47.88 19 51.63 25.5 47.88"/><polygon class="cls-2" points="44.5 37.31 44.5 29.81 38 26.06 31.5 29.81 31.5 37.31 38 41.07 44.5 37.31"/><path class="cls-2" d="M44.5,15.36V9.52a1.47,1.47,0,0,0-.72-1.25L38.72,5.35a1.43,1.43,0,0,0-1.44,0L32.22,8.27a1.47,1.47,0,0,0-.72,1.25v5.84a1.47,1.47,0,0,0,.72,1.25l5.06,2.92a1.43,1.43,0,0,0,1.44,0l5.06-2.92A1.47,1.47,0,0,0,44.5,15.36Z"/></g></svg>