<svg xmlns="http://www.w3.org/2000/svg" xmlns:xlink="http://www.w3.org/1999/xlink" viewBox="0 0 16 62"><defs><style>.cls-1{fill:none;}.cls-2{fill:#fff;}.cls-3{fill:#dcdb29;}.cls-4{clip-path:url(#clip-path);}.cls-5{fill:#316734;}</style><clipPath id="clip-path"><path class="cls-1" d="M-3.88,39.08a23,23,0,0,1-23,23,23,23,0,0,1-23-23,23,23,0,0,1,23-23A23,23,0,0,1-3.88,39.08Z"/></clipPath></defs><title>yo-yo</title><g id="sportsman-comp"><rect class="cls-2" x="7" width="2" height="56" transform="translate(16 56) rotate(180)"/><path class="cls-3" d="M16,54a8,8,0,1,1-8-8A8,8,0,0,1,16,54Z"/><g class="cls-4"><polygon class="cls-5" points="-11.91 25.02 -2.3 24.85 0.83 33.95 -6.84 39.74 -14.72 34.22 -11.91 25.02"/></g></g></svg>